<svg width="28" height="30" viewBox="0 0 28 30" fill="none" xmlns="http://www.w3.org/2000/svg">
<path fill-rule="evenodd" clip-rule="evenodd" d="M13.8022 3.95992e-07C11.9978 -0.000552225 10.2407 0.57731 8.78891 1.64877C7.33709 2.72023 6.26696 4.22886 5.7356 5.95323C5.20423 7.6776 5.23961 9.52689 5.83653 11.2297C6.43346 12.9325 7.5605 14.3991 9.05224 15.4142C6.46325 16.3638 4.21767 18.0664 2.6045 20.303C0.991334 22.5395 0.0843914 25.2077 0.000396203 27.9641C-0.00875899 28.2692 0.103691 28.5655 0.313007 28.7878C0.522324 29.0101 0.811361 29.1401 1.11653 29.1492C1.42171 29.1584 1.71802 29.0459 1.94028 28.8366C2.16255 28.6273 2.29256 28.3383 2.30171 28.0331C2.39307 25.0436 3.64485 22.2072 5.79177 20.1249C7.9387 18.0426 10.812 16.878 13.8029 16.878C16.7938 16.878 19.6671 18.0426 21.8141 20.1249C23.961 22.2072 25.2128 25.0436 25.3041 28.0331C25.3053 28.1863 25.337 28.3377 25.3975 28.4785C25.458 28.6193 25.546 28.7466 25.6563 28.8529C25.7666 28.9592 25.897 29.0424 26.04 29.0976C26.1829 29.1529 26.3354 29.179 26.4885 29.1745C26.6417 29.17 26.7924 29.135 26.9318 29.0715C27.0712 29.0079 27.1965 28.9172 27.3004 28.8046C27.4043 28.692 27.4847 28.5598 27.5368 28.4157C27.5889 28.2716 27.6117 28.1186 27.6039 27.9656C27.5202 25.209 26.6134 22.5405 25.0002 20.3036C23.387 18.0667 21.1413 16.3639 18.5521 15.4142C20.0438 14.3991 21.1708 12.9325 21.7678 11.2297C22.3647 9.52689 22.4001 7.6776 21.8687 5.95323C21.3373 4.22886 20.2672 2.72023 18.8154 1.64877C17.3636 0.57731 15.6065 -0.000552225 13.8022 3.95992e-07ZM7.66531 8.43816C7.66531 6.81057 8.31187 5.24964 9.46275 4.09875C10.6136 2.94787 12.1746 2.30132 13.8022 2.30132C15.4297 2.30132 16.9907 2.94787 18.1416 4.09875C19.2924 5.24964 19.939 6.81057 19.939 8.43816C19.939 10.0657 19.2924 11.6267 18.1416 12.7776C16.9907 13.9284 15.4297 14.575 13.8022 14.575C12.1746 14.575 10.6136 13.9284 9.46275 12.7776C8.31187 11.6267 7.66531 10.0657 7.66531 8.43816Z" fill="white"/>
</svg>
