<svg width="27" height="35" viewBox="0 0 27 35" fill="none" xmlns="http://www.w3.org/2000/svg">
<path d="M9.54005 10.53C10.548 10.53 11.358 9.72004 11.358 8.71204C11.358 7.70404 10.548 6.89404 9.54005 6.89404C8.53205 6.89404 7.72205 7.70404 7.72205 8.71204C7.72205 9.72004 8.53205 10.53 9.54005 10.53Z" fill="#141D2B"/>
<path fill-rule="evenodd" clip-rule="evenodd" d="M13.194 14.4901C13.194 12.5461 11.556 11.1421 9.53999 11.1421C7.52399 11.1421 5.88599 12.5461 5.88599 14.4901V15.4081C5.88599 15.5701 5.95799 15.7321 6.06599 15.8401C6.17399 15.9481 6.33599 16.0201 6.49799 16.0201H12.582C12.744 16.0201 12.906 15.9481 13.014 15.8401C13.122 15.7321 13.194 15.5701 13.194 15.4081V14.4901Z" fill="#141D2B"/>
<path fill-rule="evenodd" clip-rule="evenodd" d="M5.84998 19.8C5.84998 19.0544 6.4544 18.45 7.19998 18.45H19.8C20.5455 18.45 21.15 19.0544 21.15 19.8C21.15 20.5455 20.5455 21.15 19.8 21.15H7.19998C6.4544 21.15 5.84998 20.5455 5.84998 19.8Z" fill="#141D2B"/>
<path fill-rule="evenodd" clip-rule="evenodd" d="M5.84998 25.2001C5.84998 24.4545 6.4544 23.8501 7.19998 23.8501H19.8C20.5455 23.8501 21.15 24.4545 21.15 25.2001C21.15 25.9457 20.5455 26.5501 19.8 26.5501H7.19998C6.4544 26.5501 5.84998 25.9457 5.84998 25.2001Z" fill="#141D2B"/>
<path fill-rule="evenodd" clip-rule="evenodd" d="M0 3.6C0 1.6159 1.6159 0 3.6 0H15.642C16.6532 0 17.6069 0.428699 18.279 1.13625L18.29 1.14775L26.0514 9.6115C26.6976 10.302 27 11.2039 27 12.06V30.6C27 32.5841 25.3841 34.2 23.4 34.2H3.6C1.6159 34.2 0 32.5841 0 30.6V3.6ZM15.6402 3.6H3.6V30.6H23.4V12.06C23.4 12.0555 23.3996 12.0504 23.3987 12.0453L15.6665 3.61336L15.6622 3.61008C15.6584 3.60747 15.6542 3.60509 15.6499 3.6032C15.6447 3.60097 15.6402 3.6 15.6402 3.6Z" fill="#141D2B"/>
<path fill-rule="evenodd" clip-rule="evenodd" d="M15.6422 0C16.6363 0 17.4422 0.805887 17.4422 1.8V10.26H25.2002C26.1943 10.26 27.0002 11.0659 27.0002 12.06C27.0002 13.0541 26.1943 13.86 25.2002 13.86H15.6422C14.648 13.86 13.8422 13.0541 13.8422 12.06V1.8C13.8422 0.805887 14.648 0 15.6422 0Z" fill="#141D2B"/>
</svg>
