<svg width="34" height="32" viewBox="0 0 34 32" fill="none" xmlns="http://www.w3.org/2000/svg">
<path d="M32.896 9.368L24.232 0.704C23.7823 0.253784 23.1723 0.000560167 22.536 0H8.8C8.16348 0 7.55303 0.252856 7.10294 0.702944C6.65286 1.15303 6.4 1.76348 6.4 2.4V6.4C6.4 6.61217 6.48429 6.81566 6.63431 6.96569C6.78434 7.11571 6.98783 7.2 7.2 7.2C7.41217 7.2 7.61566 7.11571 7.76568 6.96569C7.91571 6.81566 8 6.61217 8 6.4V2.4C8 2.18783 8.08428 1.98434 8.23431 1.83431C8.38434 1.68429 8.58783 1.6 8.8 1.6H22.4V8.8C22.4 9.43652 22.6529 10.047 23.1029 10.4971C23.553 10.9471 24.1635 11.2 24.8 11.2H32V29.6C32 29.8122 31.9157 30.0157 31.7657 30.1657C31.6157 30.3157 31.4122 30.4 31.2 30.4H17.152C17.4428 29.9168 17.5976 29.364 17.6 28.8C17.6 27.9513 17.2629 27.1374 16.6627 26.5373C16.0626 25.9371 15.2487 25.6 14.4 25.6H14.336C14.1438 24.2683 13.4785 23.0504 12.462 22.1689C11.4454 21.2875 10.1455 20.8016 8.8 20.8C8.5321 20.8011 8.26467 20.8225 8 20.864V9.6C8 9.38783 7.91571 9.18434 7.76568 9.03432C7.61566 8.88429 7.41217 8.8 7.2 8.8C6.98783 8.8 6.78434 8.88429 6.63431 9.03432C6.48429 9.18434 6.4 9.38783 6.4 9.6V21.352C5.56826 21.7476 4.84692 22.3422 4.29991 23.0832C3.75289 23.8242 3.39708 24.6886 3.264 25.6H3.2C2.35131 25.6 1.53737 25.9371 0.937258 26.5373C0.337142 27.1374 0 27.9513 0 28.8C0 29.6487 0.337142 30.4626 0.937258 31.0627C1.53737 31.6629 2.35131 32 3.2 32H31.2C31.8365 32 32.447 31.7471 32.8971 31.2971C33.3471 30.847 33.6 30.2365 33.6 29.6V11.064C33.5994 10.4277 33.3462 9.81766 32.896 9.368ZM1.6 28.8C1.6 28.3757 1.76857 27.9687 2.06863 27.6686C2.36869 27.3686 2.77565 27.2 3.2 27.2C3.60422 27.2014 3.99292 27.3557 4.288 27.632C4.36549 27.7039 4.45648 27.7598 4.55569 27.7963C4.6549 27.8329 4.76038 27.8494 4.86601 27.8449C4.97165 27.8405 5.07535 27.8151 5.17113 27.7703C5.2669 27.7255 5.35285 27.6622 5.424 27.584C5.5668 27.4279 5.64193 27.2215 5.63293 27.0101C5.62394 26.7987 5.53155 26.5994 5.376 26.456C5.20891 26.3043 5.02661 26.1703 4.832 26.056C4.95488 25.0904 5.42566 24.2027 6.15612 23.5593C6.88658 22.9159 7.82659 22.561 8.8 22.561C9.77341 22.561 10.7134 22.9159 11.4439 23.5593C12.1743 24.2027 12.6451 25.0904 12.768 26.056C12.5654 26.1756 12.3752 26.3149 12.2 26.472C12.1233 26.5445 12.0616 26.6314 12.0185 26.7277C11.9754 26.824 11.9517 26.9279 11.9487 27.0334C11.9458 27.1389 11.9636 27.2439 12.0012 27.3425C12.0388 27.4411 12.0955 27.5313 12.168 27.608C12.3144 27.7629 12.5163 27.8533 12.7294 27.8593C12.8349 27.8622 12.9399 27.8444 13.0385 27.8068C13.1371 27.7692 13.2273 27.7125 13.304 27.64C13.5999 27.3589 13.9919 27.2015 14.4 27.2C14.8243 27.2 15.2313 27.3686 15.5314 27.6686C15.8314 27.9687 16 28.3757 16 28.8C16 29.2243 15.8314 29.6313 15.5314 29.9314C15.2313 30.2314 14.8243 30.4 14.4 30.4H3.2C2.77565 30.4 2.36869 30.2314 2.06863 29.9314C1.76857 29.6313 1.6 29.2243 1.6 28.8ZM24 8.8V2.728L30.872 9.6H24.8C24.5878 9.6 24.3843 9.51571 24.2343 9.36569C24.0843 9.21566 24 9.01217 24 8.8ZM19.2 24V16.328L16.568 18.968C16.4174 19.1186 16.213 19.2033 16 19.2033C15.787 19.2033 15.5826 19.1186 15.432 18.968C15.2814 18.8174 15.1967 18.613 15.1967 18.4C15.1967 18.187 15.2814 17.9826 15.432 17.832L19.432 13.832C19.5064 13.757 19.5949 13.6975 19.6923 13.6569C19.7898 13.6163 19.8944 13.5954 20 13.5954C20.1056 13.5954 20.2102 13.6163 20.3077 13.6569C20.4051 13.6975 20.4936 13.757 20.568 13.832L24.568 17.832C24.643 17.9064 24.7025 17.9949 24.7431 18.0923C24.7837 18.1898 24.8046 18.2944 24.8046 18.4C24.8046 18.5056 24.7837 18.6102 24.7431 18.7077C24.7025 18.8051 24.643 18.8936 24.568 18.968C24.4936 19.043 24.4051 19.1025 24.3077 19.1431C24.2102 19.1837 24.1056 19.2046 24 19.2046C23.8944 19.2046 23.7898 19.1837 23.6923 19.1431C23.5949 19.1025 23.5064 19.043 23.432 18.968L20.8 16.328V24C20.8 24.2122 20.7157 24.4157 20.5657 24.5657C20.4157 24.7157 20.2122 24.8 20 24.8C19.7878 24.8 19.5843 24.7157 19.4343 24.5657C19.2843 24.4157 19.2 24.2122 19.2 24Z" fill="#141D2B"/>
</svg>
