<svg width="18" height="18" viewBox="0 0 18 18" fill="none" xmlns="http://www.w3.org/2000/svg">
<path d="M17.8249 7.23734H17.1V7.19999H8.99999V10.8H14.0863C13.3443 12.8956 11.3503 14.4 8.99999 14.4C6.01784 14.4 3.59999 11.9821 3.59999 8.99999C3.59999 6.01784 6.01784 3.59999 8.99999 3.59999C10.3765 3.59999 11.6289 4.11929 12.5824 4.96754L15.1281 2.4219C13.5207 0.923849 11.3706 0 8.99999 0C4.02974 0 0 4.02974 0 8.99999C0 13.9702 4.02974 18 8.99999 18C13.9702 18 18 13.9702 18 8.99999C18 8.39654 17.9379 7.80749 17.8249 7.23734Z" fill="#FFC107"/>
<path d="M1.03766 4.81094L3.9946 6.97949C4.7947 4.99859 6.7324 3.6 8.99995 3.6C10.3765 3.6 11.6288 4.11929 12.5824 4.96754L15.128 2.4219C13.5206 0.923849 11.3705 0 8.99995 0C5.54305 0 2.54516 1.95165 1.03766 4.81094Z" fill="#FF3D00"/>
<path d="M9.00003 17.9999C11.3247 17.9999 13.437 17.1103 15.0341 15.6635L12.2486 13.3064C11.345 13.9909 10.2218 14.3999 9.00003 14.3999C6.65913 14.3999 4.67149 12.9073 3.92269 10.8242L0.987793 13.0855C2.47729 16.0001 5.50219 17.9999 9.00003 17.9999Z" fill="#4CAF50"/>
<path d="M17.8249 7.2373H17.1V7.19995H9V10.7999H14.0863C13.7299 11.8066 13.0824 12.6746 12.2472 13.3069C12.2476 13.3064 12.2481 13.3064 12.2485 13.306L15.034 15.6631C14.8369 15.8422 18 13.4999 18 8.99995C18 8.3965 17.9379 7.80745 17.8249 7.2373Z" fill="#1976D2"/>
</svg>
