<svg width="18" height="18" viewBox="0 0 18 18" fill="none" xmlns="http://www.w3.org/2000/svg">
<path fill-rule="evenodd" clip-rule="evenodd" d="M9.00003 4.00012C5.35203 4.00012 2.2414 6.15675 0.960776 9.19425C0.935266 9.25475 0.898091 9.30963 0.851372 9.35576C0.804652 9.40189 0.749304 9.43837 0.688488 9.46311C0.627671 9.48785 0.562577 9.50037 0.496922 9.49996C0.431267 9.49954 0.366336 9.4862 0.305838 9.46069C0.24534 9.43518 0.190458 9.398 0.144327 9.35128C0.0981957 9.30456 0.0617184 9.24922 0.0369774 9.1884C0.0122364 9.12758 -0.000283687 9.06249 0.000132096 8.99683C0.00054788 8.93118 0.0138911 8.86625 0.0394004 8.80575C1.47828 5.39325 4.95453 3 9.00003 3C13.0455 3 16.5218 5.39325 17.9607 8.80575C18.0122 8.92793 18.013 9.06558 17.9631 9.1884C17.9131 9.31122 17.8164 9.40917 17.6942 9.46069C17.572 9.51221 17.4344 9.51308 17.3116 9.46311C17.1887 9.41314 17.0908 9.31643 17.0393 9.19425C15.7587 6.15675 12.648 4.00012 9.00003 4.00012Z" fill="#676767"/>
<path fill-rule="evenodd" clip-rule="evenodd" d="M9.00003 13.9998C5.35203 13.9998 2.2414 11.8432 0.960776 8.80572C0.935266 8.74522 0.898091 8.69034 0.851372 8.64421C0.804652 8.59807 0.749304 8.5616 0.688488 8.53686C0.627671 8.51211 0.562577 8.49959 0.496922 8.50001C0.431267 8.50043 0.366336 8.51377 0.305838 8.53928C0.24534 8.56479 0.190458 8.60196 0.144327 8.64868C0.0981957 8.6954 0.0617184 8.75075 0.0369774 8.81157C0.0122364 8.87238 -0.000283687 8.93748 0.000132096 9.00313C0.00054788 9.06879 0.0138911 9.13372 0.0394004 9.19422C1.47828 12.6067 4.95453 15 9.00003 15C13.0455 15 16.5218 12.6067 17.9607 9.19422C18.0122 9.07203 18.013 8.93439 17.9631 8.81157C17.9131 8.68874 17.8164 8.5908 17.6942 8.53928C17.572 8.48776 17.4344 8.48689 17.3116 8.53686C17.1887 8.58682 17.0908 8.68353 17.0393 8.80572C15.7587 11.8432 12.648 13.9998 9.00003 13.9998Z" fill="#676767"/>
<path fill-rule="evenodd" clip-rule="evenodd" d="M9 6.50012C8.66912 6.49607 8.34074 6.55774 8.03388 6.68156C7.72702 6.80537 7.44779 6.98887 7.21238 7.22141C6.97697 7.45396 6.79007 7.73092 6.6625 8.03624C6.53494 8.34156 6.46925 8.66916 6.46925 9.00006C6.46925 9.33096 6.53494 9.65857 6.6625 9.96389C6.79007 10.2692 6.97697 10.5462 7.21238 10.7787C7.44779 11.0113 7.72702 11.1948 8.03388 11.3186C8.34074 11.4424 8.66912 11.5041 9 11.5C9.65772 11.4919 10.2858 11.225 10.748 10.7571C11.2103 10.2891 11.4695 9.65783 11.4695 9.00006C11.4695 8.34229 11.2103 7.71102 10.748 7.24307C10.2858 6.77511 9.65772 6.50818 9 6.50012ZM5.50012 8.99988C5.50012 8.54026 5.59065 8.08516 5.76653 7.66053C5.94242 7.23591 6.20022 6.85008 6.52521 6.52509C6.85021 6.2001 7.23603 5.9423 7.66065 5.76641C8.08528 5.59053 8.54039 5.5 9 5.5C9.45961 5.5 9.91472 5.59053 10.3393 5.76641C10.764 5.9423 11.1498 6.2001 11.4748 6.52509C11.7998 6.85008 12.0576 7.23591 12.2335 7.66053C12.4093 8.08516 12.4999 8.54026 12.4999 8.99988C12.4999 9.9281 12.1311 10.8183 11.4748 11.4747C10.8184 12.131 9.92822 12.4998 9 12.4998C8.07177 12.4998 7.18157 12.131 6.52521 11.4747C5.86886 10.8183 5.50012 9.9281 5.50012 8.99988Z" fill="#676767"/>
<path fill-rule="evenodd" clip-rule="evenodd" d="M17.8538 0.146287C18.0488 0.341662 18.0488 0.658162 17.8538 0.853537L0.853162 17.8538C0.806723 17.9002 0.751598 17.937 0.690932 17.9621C0.630266 17.9872 0.565249 18.0001 0.499592 18.0001C0.433935 18.0001 0.368925 17.9872 0.308272 17.962C0.24762 17.9369 0.192514 17.9 0.1461 17.8536C0.0996855 17.8072 0.0628726 17.752 0.037763 17.6914C0.0126533 17.6307 -0.000261535 17.5657 -0.000244123 17.5C-0.000226712 17.4344 0.0127227 17.3694 0.0378645 17.3087C0.0630064 17.2481 0.0998486 17.193 0.146287 17.1465L17.1465 0.146287C17.3415 -0.0490879 17.6584 -0.0490879 17.8538 0.146287Z" fill="#676767"/>
</svg>
