<svg width="39" height="32" viewBox="0 0 39 32" fill="none" xmlns="http://www.w3.org/2000/svg">
<path d="M7.9999 12.8C7.0399 12.8 6.3999 12.16 6.3999 11.2C6.3999 4.96 11.3599 0 17.5999 0C22.3999 0 26.7199 3.2 28.3199 7.84001C28.4799 8.64001 28.1599 9.60001 27.1999 9.76001C26.3999 10.08 25.4399 9.60001 25.1199 8.80001C24.1599 5.44 21.1199 3.2 17.5999 3.2C13.1199 3.2 9.5999 6.72001 9.5999 11.2C9.5999 12.16 8.9599 12.8 7.9999 12.8Z" fill="#DEDCDA"/>
<path d="M28.7999 25.6002C27.8399 25.6002 27.1999 24.9602 27.1999 24.0002C27.1999 23.0402 27.8399 22.4002 28.7999 22.4002C32.3199 22.4002 35.1999 19.5202 35.1999 16.0002C35.1999 12.4802 32.3199 9.60015 28.7999 9.60015C28.3199 9.60015 27.6799 9.60015 27.1999 9.76015C26.3999 9.92015 25.4399 9.44015 25.2799 8.64015C25.1199 7.84015 25.5999 6.88015 26.3999 6.72015C27.1999 6.56015 27.9999 6.40015 28.7999 6.40015C34.0799 6.40015 38.3999 10.7201 38.3999 16.0002C38.3999 21.2802 34.0799 25.6002 28.7999 25.6002ZM12.7999 25.6002H7.9999C7.0399 25.6002 6.3999 24.9602 6.3999 24.0002C6.3999 23.0402 7.0399 22.4002 7.9999 22.4002H12.7999C13.7599 22.4002 14.3999 23.0402 14.3999 24.0002C14.3999 24.9602 13.7599 25.6002 12.7999 25.6002Z" fill="#DEDCDA"/>
<path d="M28.8 25.6001H25.6C24.64 25.6001 24 24.9601 24 24.0001C24 23.0401 24.64 22.4001 25.6 22.4001H28.8C29.76 22.4001 30.4 23.0401 30.4 24.0001C30.4 24.9601 29.76 25.6001 28.8 25.6001ZM7.99999 25.6001C3.52 25.6001 0 22.0801 0 17.6001C0 13.1201 3.52 9.6001 7.99999 9.6001C8.95999 9.6001 9.59999 10.2401 9.59999 11.2001C9.59999 12.1601 8.95999 12.8001 7.99999 12.8001C5.28 12.8001 3.2 14.8801 3.2 17.6001C3.2 20.3201 5.28 22.4001 7.99999 22.4001C8.95999 22.4001 9.59999 23.0401 9.59999 24.0001C9.59999 24.9601 8.95999 25.6001 7.99999 25.6001ZM19.2 32.0001C18.24 32.0001 17.6 31.3601 17.6 30.4001V14.4001C17.6 13.4401 18.24 12.8001 19.2 12.8001C20.16 12.8001 20.8 13.4401 20.8 14.4001V30.4001C20.8 31.3601 20.16 32.0001 19.2 32.0001Z" fill="#DEDCDA"/>
<path d="M14.4 20.8001C13.92 20.8001 13.6 20.6401 13.28 20.3201C12.64 19.6801 12.64 18.7201 13.28 18.0801L18.08 13.28C18.72 12.64 19.68 12.64 20.32 13.28C20.96 13.92 20.96 14.88 20.32 15.5201L15.52 20.3201C15.2 20.6401 14.88 20.8001 14.4 20.8001Z" fill="#DEDCDA"/>
<path d="M23.9998 20.8001C23.5198 20.8001 23.1998 20.6401 22.8798 20.3201L18.0799 15.5201C17.4399 14.88 17.4399 13.92 18.0799 13.28C18.7199 12.64 19.6799 12.64 20.3199 13.28L25.1198 18.0801C25.7598 18.7201 25.7598 19.6801 25.1198 20.3201C24.7998 20.6401 24.4798 20.8001 23.9998 20.8001Z" fill="#DEDCDA"/>
</svg>
