<svg width="27" height="27" viewBox="0 0 27 27" fill="none" xmlns="http://www.w3.org/2000/svg">
<path d="M25.0001 0H1.99313C0.892875 0 0 0.871875 0 1.9455V25.0519C0 26.127 0.892875 27 1.99313 27H25.0001C26.1011 27 27 26.127 27 25.0519V1.9455C27 0.871875 26.1011 0 25.0001 0ZM8.00775 23.0077H4.00125V10.1231H8.00775V23.0077ZM6.0045 8.36138C4.72087 8.36138 3.68325 7.32113 3.68325 6.03863C3.68325 4.758 4.72087 3.71775 6.0045 3.71775C7.28512 3.71775 8.32537 4.758 8.32537 6.03863C8.32537 7.32113 7.28512 8.36138 6.0045 8.36138ZM23.0062 23.0077H19.0061V16.7423C19.0061 15.2475 18.9769 13.3256 16.9245 13.3256C14.8403 13.3256 14.5226 14.9535 14.5226 16.6339V23.0081H10.5195V10.1231H14.3614V11.8826H14.4161C14.9509 10.8701 16.2574 9.80175 18.2059 9.80175C22.2581 9.80175 23.0066 12.4695 23.0066 15.9401L23.0062 23.0077Z" fill="#141D2B"/>
</svg>
