<svg width="18" height="10" viewBox="0 0 18 10" fill="none" xmlns="http://www.w3.org/2000/svg">
<path d="M16.8728 4.99833C15.6002 3.59215 8.52716 -3.42118 1.12361 4.99833C8.52716 13.4214 15.6002 6.40451 16.8728 4.99833ZM0.367791 4.76631C9.1283 -5.53397 17.5267 4.63976 17.6287 4.76631C17.6844 4.83126 17.7154 4.91385 17.716 4.99945C17.7167 5.08504 17.687 5.16809 17.6322 5.23387C17.6076 5.26199 9.17752 15.5728 0.374822 5.24441C0.315754 5.17918 0.282461 5.09468 0.281167 5.00669C0.279873 4.9187 0.310666 4.83325 0.367791 4.76631Z" fill="#676767"/>
<path d="M8.99824 2.31252C9.3515 2.31113 9.70154 2.37962 10.0282 2.51406C10.3549 2.6485 10.6518 2.84623 10.9017 3.09586C11.1517 3.34549 11.3498 3.6421 11.4847 3.9686C11.6195 4.29511 11.6885 4.64507 11.6876 4.99833C11.689 5.35188 11.6203 5.70222 11.4857 6.02913C11.351 6.35605 11.153 6.65307 10.903 6.90307C10.653 7.15308 10.356 7.35112 10.029 7.48578C9.70213 7.62043 9.35179 7.68904 8.99824 7.68765C8.64497 7.68858 8.29502 7.61963 7.96851 7.48476C7.642 7.3499 7.3454 7.15178 7.09577 6.90182C6.84613 6.65187 6.64841 6.355 6.51397 6.02832C6.37953 5.70164 6.31104 5.35159 6.31243 4.99833C6.3115 4.64536 6.38034 4.29569 6.51498 3.96942C6.64963 3.64314 6.84743 3.34669 7.09701 3.09711C7.3466 2.84752 7.64305 2.64972 7.96933 2.51508C8.2956 2.38043 8.64527 2.31159 8.99824 2.31252ZM10.3868 3.61324C10.1141 3.335 9.76433 3.14465 9.38257 3.06661C9.00081 2.98858 8.60444 3.02643 8.24435 3.1753C7.88426 3.32417 7.57688 3.57728 7.36168 3.90211C7.14648 4.22695 7.03328 4.60869 7.03661 4.99833C7.03257 5.38827 7.14526 5.7705 7.36018 6.09588C7.57511 6.42127 7.88246 6.67492 8.2427 6.82423C8.60294 6.97355 8.99961 7.01169 9.3817 6.93376C9.7638 6.85583 10.1138 6.66539 10.3868 6.38693C10.5698 6.20526 10.7149 5.98919 10.814 5.75118C10.9131 5.51316 10.9641 5.2579 10.9641 5.00009C10.9641 4.74227 10.9131 4.48701 10.814 4.24899C10.7149 4.01098 10.5698 3.79491 10.3868 3.61324Z" fill="#676767"/>
</svg>
