<svg width="27" height="27" viewBox="0 0 27 27" fill="none" xmlns="http://www.w3.org/2000/svg">
<path d="M24.2599 9.11383C24.8117 10.4659 25.1163 11.9462 25.1163 13.5H27C27 11.698 26.6465 9.97627 26.004 8.40209L24.2599 9.11383ZM25.1163 13.5C25.1163 14.3254 25.0304 15.1298 24.8673 15.9049L26.7105 16.2927C26.9004 15.3909 27 14.4566 27 13.5H25.1163ZM24.8673 15.9049C23.9235 20.3896 20.3896 23.9235 15.9049 24.8673L16.2927 26.7105C21.5083 25.6131 25.6131 21.5083 26.7105 16.2927L24.8673 15.9049ZM15.9049 24.8673C15.1298 25.0304 14.3254 25.1163 13.5 25.1163V27C14.4566 27 15.3909 26.9004 16.2927 26.7105L15.9049 24.8673ZM13.5 25.1163C12.6746 25.1163 11.8702 25.0304 11.0951 24.8673L10.7073 26.7105C11.6091 26.9004 12.5434 27 13.5 27V25.1163ZM1.88372 13.5C1.88372 11.9451 2.18875 10.4636 2.74135 9.11065L0.997481 8.39839C0.354114 9.97359 0 11.6967 0 13.5H1.88372ZM11.0951 24.8673C6.61038 23.9235 3.07644 20.3896 2.13276 15.9049L0.289402 16.2927C1.38686 21.5083 5.49174 25.6131 10.7073 26.7105L11.0951 24.8673ZM2.13276 15.9049C1.96967 15.1298 1.88372 14.3254 1.88372 13.5H0C0 14.4566 0.0996363 15.3909 0.289402 16.2927L2.13276 15.9049ZM2.74135 9.11065C4.17965 5.58918 7.29736 2.9319 11.0951 2.13276L10.7073 0.289402C6.28831 1.21924 2.66843 4.30732 0.997481 8.39839L2.74135 9.11065ZM11.0951 2.13276C11.8702 1.96967 12.6746 1.88372 13.5 1.88372V0C12.5434 0 11.6091 0.0996363 10.7073 0.289402L11.0951 2.13276ZM13.5 1.88372C14.3254 1.88372 15.1298 1.96967 15.9049 2.13276L16.2927 0.289415C15.3909 0.0996363 14.4566 0 13.5 0V1.88372ZM15.9049 2.13276C19.7038 2.93214 22.8223 5.59078 24.2599 9.11383L26.004 8.40209C24.3338 4.30917 20.713 1.21953 16.2927 0.289415L15.9049 2.13276ZM15.2015 1.49739C15.548 2.58336 16.8307 6.76011 17.3564 10.5976L19.2227 10.342C18.6736 6.33367 17.3478 2.02697 16.9961 0.924781L15.2015 1.49739ZM17.3564 10.5976C17.4973 11.6261 17.5814 12.6138 17.5814 13.5H19.4651C19.4651 12.5024 19.3711 11.4249 19.2227 10.342L17.3564 10.5976ZM24.7561 7.89852C23.3779 8.31654 20.7891 9.0507 18.1186 9.54357L18.4605 11.396C21.2303 10.8848 23.8947 10.1282 25.3028 9.70115L24.7561 7.89852ZM18.1186 9.54357C16.4986 9.84257 14.881 10.0465 13.5 10.0465V11.9302C15.0436 11.9302 16.7876 11.7048 18.4605 11.396L18.1186 9.54357ZM17.5814 13.5C17.5814 14.813 17.397 16.3408 17.1213 17.8827L18.9756 18.2142C19.2609 16.6186 19.4651 14.9691 19.4651 13.5H17.5814ZM17.1213 17.8827C16.5171 21.2623 15.5019 24.5612 15.2015 25.5026L16.9961 26.0752C17.3044 25.1091 18.3493 21.717 18.9756 18.2142L17.1213 17.8827ZM25.5026 15.2015C24.5612 15.5019 21.2623 16.5171 17.8827 17.1213L18.2142 18.9756C21.717 18.3493 25.1091 17.3044 26.0752 16.9961L25.5026 15.2015ZM17.8827 17.1213C16.3408 17.397 14.813 17.5814 13.5 17.5814V19.4651C14.9691 19.4651 16.6186 19.2609 18.2142 18.9756L17.8827 17.1213ZM13.5 17.5814C12.187 17.5814 10.6592 17.397 9.1173 17.1213L8.78575 18.9756C10.3815 19.2609 12.0309 19.4651 13.5 19.4651V17.5814ZM9.1173 17.1213C5.73764 16.5171 2.43875 15.5019 1.49739 15.2015L0.924781 16.9961C1.89085 17.3044 5.28301 18.3493 8.78575 18.9756L9.1173 17.1213ZM7.53488 13.5C7.53488 14.9691 7.73905 16.6186 8.02436 18.2142L9.87868 17.8827C9.603 16.3408 9.4186 14.813 9.4186 13.5H7.53488ZM8.02436 18.2142C8.65065 21.717 9.69567 25.1091 10.0039 26.0752L11.7985 25.5026C11.4981 24.5612 10.483 21.2623 9.87868 17.8827L8.02436 18.2142ZM10.0039 0.924781C9.65224 2.02697 8.32642 6.33367 7.77731 10.342L9.6436 10.5976C10.1693 6.76011 11.452 2.58336 11.7985 1.49739L10.0039 0.924781ZM7.77731 10.342C7.62896 11.4249 7.53488 12.5024 7.53488 13.5H9.4186C9.4186 12.6138 9.50271 11.6261 9.6436 10.5976L7.77731 10.342ZM13.5 10.0465C12.119 10.0465 10.5014 9.84257 8.88139 9.54357L8.53951 11.396C10.2124 11.7048 11.9564 11.9302 13.5 11.9302V10.0465ZM8.88139 9.54357C6.20987 9.05053 3.62034 8.31602 2.24247 7.89808L1.69569 9.7007C3.1033 10.1277 5.76872 10.8846 8.53951 11.396L8.88139 9.54357ZM24.698 7.92206C24.7147 7.91341 24.7345 7.90505 24.7561 7.89852L25.3028 9.70115C25.3957 9.67297 25.4831 9.63689 25.566 9.59385L24.698 7.92206ZM1.37803 9.55804C1.47562 9.61773 1.58156 9.66608 1.69569 9.7007L2.24247 7.89808C2.286 7.91128 2.32613 7.92981 2.3608 7.95101L1.37803 9.55804Z" fill="#141D2B"/>
</svg>
