<svg width="84" height="84" viewBox="0 0 84 84" fill="none" xmlns="http://www.w3.org/2000/svg">
<path d="M36 3.4641C39.7128 1.32051 44.2872 1.32051 48 3.4641L72.3731 17.5359C76.0859 19.6795 78.3731 23.641 78.3731 27.9282V56.0718C78.3731 60.359 76.0859 64.3205 72.3731 66.4641L48 80.5359C44.2872 82.6795 39.7128 82.6795 36 80.5359L11.6269 66.4641C7.91412 64.3205 5.62693 60.359 5.62693 56.0718V27.9282C5.62693 23.641 7.91412 19.6795 11.6269 17.5359L36 3.4641Z" fill="url(#paint0_linear_30_151)"/>
<path fill-rule="evenodd" clip-rule="evenodd" d="M75.1469 24.0603C76.2185 25.9922 75.521 28.4269 73.5891 29.4985L45.059 45.3228V71.2942C45.059 73.5033 43.2681 75.2942 41.059 75.2942C38.8498 75.2942 37.059 73.5033 37.059 71.2942V45.2454L11.8692 29.3854C9.99972 28.2084 9.43841 25.7387 10.6155 23.8693C11.7925 21.9998 14.2622 21.4385 16.1316 22.6155L41.129 38.3544L69.7088 22.5025C71.6407 21.431 74.0754 22.1285 75.1469 24.0603Z" fill="white"/>
<defs>
<linearGradient id="paint0_linear_30_151" x1="5.66111e-07" y1="-2" x2="67.5" y2="68.5" gradientUnits="userSpaceOnUse">
<stop stop-color="#3777EE"/>
<stop offset="1" stop-color="#1EB6D7"/>
</linearGradient>
</defs>
</svg>
